<svg width="14" height="14" viewBox="0 0 14 14" fill="none" xmlns="http://www.w3.org/2000/svg">
<path d="M4.64665 8.02002C4.45131 7.82469 4.45131 7.508 4.64665 7.31266C4.84198 7.11733 5.15867 7.11733 5.354 7.31266L6.50065 8.45935V1C6.50065 0.724 6.72465 0.5 7.00065 0.5C7.27665 0.5 7.50065 0.724 7.50065 1V8.45935L8.6473 7.31266C8.84263 7.11733 9.15932 7.11733 9.35466 7.31266C9.54999 7.508 9.54999 7.82469 9.35466 8.02002L7.35466 10.02C7.30866 10.066 7.25339 10.1027 7.19206 10.128C7.13072 10.1533 7.06598 10.1667 7.00065 10.1667C6.93532 10.1667 6.87074 10.1533 6.80941 10.128C6.74807 10.1027 6.69265 10.066 6.64665 10.02L4.64665 8.02002ZM11 5.16667C10.724 5.16667 10.5 5.39067 10.5 5.66667C10.5 5.94267 10.724 6.16667 11 6.16667C12.0513 6.16667 12.5 6.61533 12.5 7.66667V11C12.5 12.0513 12.0513 12.5 11 12.5H3C1.94867 12.5 1.5 12.0513 1.5 11V7.66667C1.5 6.61533 1.94867 6.16667 3 6.16667C3.276 6.16667 3.5 5.94267 3.5 5.66667C3.5 5.39067 3.276 5.16667 3 5.16667C1.388 5.16667 0.5 6.05467 0.5 7.66667V11C0.5 12.612 1.388 13.5 3 13.5H11C12.612 13.5 13.5 12.612 13.5 11V7.66667C13.5 6.05467 12.612 5.16667 11 5.16667Z" fill="#006999"/>
</svg>
