<svg width="24" height="24" viewBox="0 0 24 24" fill="none" xmlns="http://www.w3.org/2000/svg">
<path d="M10.8333 14.9166C10.8333 16.5266 13.4455 17.8333 16.6667 17.8333C19.8878 17.8333 22.5 16.5266 22.5 14.9166M1.5 9.08325C1.5 10.6933 4.11217 11.9999 7.33333 11.9999C8.647 11.9999 9.85917 11.7829 10.8333 11.4166M1.5 13.1666C1.5 14.7766 4.11217 16.0833 7.33333 16.0833C8.647 16.0833 9.858 15.8663 10.8333 15.4999M16.6667 13.1666C13.4455 13.1666 10.8333 11.8599 10.8333 10.2499C10.8333 8.63992 13.4455 7.33325 16.6667 7.33325C19.8878 7.33325 22.5 8.63992 22.5 10.2499C22.5 11.8599 19.8878 13.1666 16.6667 13.1666Z" stroke="#94A3BB" stroke-width="1.5" stroke-linecap="round" stroke-linejoin="round"/>
<path d="M1.5 4.41675V17.2501C1.5 18.8601 4.11217 20.1667 7.33333 20.1667C8.647 20.1667 9.858 19.9497 10.8333 19.5834M10.8333 19.5834V10.2501M10.8333 19.5834C10.8333 21.1934 13.4455 22.5001 16.6667 22.5001C19.8878 22.5001 22.5 21.1934 22.5 19.5834V10.2501M13.1667 7.91675V4.41675" stroke="#94A3BB" stroke-width="1.5" stroke-linecap="round" stroke-linejoin="round"/>
<path d="M7.33333 7.33333C4.11217 7.33333 1.5 6.02667 1.5 4.41667C1.5 2.80667 4.11217 1.5 7.33333 1.5C10.5545 1.5 13.1667 2.80667 13.1667 4.41667C13.1667 6.02667 10.5545 7.33333 7.33333 7.33333Z" stroke="#94A3BB" stroke-width="1.5" stroke-linecap="round" stroke-linejoin="round"/>
</svg>
