<svg width="33" height="40" viewBox="0 0 33 40" fill="none" xmlns="http://www.w3.org/2000/svg">
<path d="M0.00012207 4.29268C0.00012207 1.9219 1.92202 0 4.2928 0H22.3135C23.4419 0 24.525 0.444368 25.3284 1.23694L31.2426 7.07215C32.0602 7.87878 32.5204 8.97939 32.5204 10.1279V35.7073C32.5204 38.0781 30.5985 40 28.2278 40H4.2928C1.92202 40 0.00012207 38.0781 0.00012207 35.7073V4.29268Z" fill="white"/>
<path d="M14.2808 8.97013C14.3668 7.41187 16.2862 7.22217 16.7876 8.97013C17.1887 10.3685 16.5437 12.6151 16.1331 14.2193C16.5437 15.1625 17.8851 16.9105 18.6846 17.6829C21.3539 17.2763 22.858 17.3217 23.8472 17.7913C25.1886 18.4281 24.9041 19.995 23.6033 20.1219C22.4922 20.2303 20.8526 20.1218 18.522 18.1842C17.9167 18.2655 16.1127 18.6151 13.9556 19.363C13.129 20.691 11.9773 22.5072 11.0016 23.2926C9.40274 24.5799 8.19679 24.1598 7.85803 23.4552C7.39734 22.2086 9.26724 21.0433 12.6683 19.363C13.2058 18.2971 14.4461 15.6314 15.1073 13.4959C14.8183 12.8048 14.1724 10.9349 14.2808 8.97013ZM12.2076 20.0948C7.57348 22.0945 7.7903 23.4417 8.65751 23.5772C9.52472 23.7126 10.5952 22.6151 12.2076 20.0948ZM23.5491 18.9024C23.4949 17.6287 21.5437 17.6286 18.9962 18.0622C21.9637 20.1761 23.5491 19.7967 23.5491 18.9024ZM15.9068 14.7289C15.1914 16.8427 14.4976 18.3288 14.2401 18.8075C16.1697 18.2113 17.6999 17.8906 18.2239 17.8048C17.1507 16.5907 16.232 15.2483 15.9068 14.7289ZM15.3512 12.8183C16.4759 9.22758 16.0965 8.08937 15.2429 8.21131C14.3486 8.36036 14.4705 10.9078 15.3512 12.8183Z" fill="#FF2116"/>
<path d="M4.29309 0.584961H22.3136C23.288 0.584997 24.2234 0.968993 24.9171 1.65332L30.8312 7.48926C31.5372 8.18589 31.9347 9.13605 31.9347 10.1279V35.707C31.9347 37.7545 30.2752 39.415 28.2277 39.415H4.29309C2.2456 39.415 0.585083 37.7545 0.585083 35.707V4.29297C0.585083 2.24547 2.2456 0.584961 4.29309 0.584961Z" stroke="#FF2116" stroke-width="1.17073"/>
<path fill-rule="evenodd" clip-rule="evenodd" d="M11.3555 28.2656C11.8232 28.2657 12.2225 28.3488 12.5527 28.5166C12.8855 28.6816 13.1382 28.9119 13.3115 29.2061C13.4877 29.4978 13.5762 29.8317 13.5762 30.2061C13.5761 30.5939 13.4876 30.9283 13.3115 31.209C13.1382 31.4895 12.8856 31.7061 12.5527 31.8574C12.2225 32.0088 11.8232 32.0839 11.3555 32.084H10.1787V34.2764H9.04297V28.2656H11.3555ZM10.1787 31.1924H11.3555C11.6083 31.1923 11.813 31.1508 11.9697 31.0684C12.1294 30.983 12.247 30.8676 12.3213 30.7217C12.3956 30.5731 12.4326 30.4038 12.4326 30.2139C12.4326 30.0296 12.3955 29.8578 12.3213 29.6982C12.247 29.5386 12.1294 29.4087 11.9697 29.3096C11.813 29.2107 11.6083 29.1612 11.3555 29.1611H10.1787V31.1924Z" fill="black"/>
<path fill-rule="evenodd" clip-rule="evenodd" d="M16.2891 28.2656C16.6907 28.2657 17.0565 28.333 17.3867 28.4678C17.7198 28.6026 18.0078 28.7966 18.25 29.0498C18.4948 29.3002 18.6822 29.5999 18.8115 29.9492C18.9436 30.2987 19.0098 30.69 19.0098 31.1221V31.4238C19.0097 31.8529 18.9435 32.2436 18.8115 32.5957C18.6822 32.9452 18.4949 33.2457 18.25 33.4961C18.0078 33.7466 17.7186 33.9394 17.3828 34.0742C17.047 34.2091 16.6738 34.2764 16.2637 34.2764H14.4678V28.2656H16.2891ZM15.6035 33.3848H16.2637C16.6132 33.3848 16.9069 33.3075 17.1436 33.1533C17.3801 32.9965 17.5586 32.7721 17.6797 32.4805C17.8008 32.186 17.8613 31.8338 17.8613 31.4238V31.1143C17.8613 30.7977 17.8276 30.5176 17.7588 30.2754C17.69 30.0334 17.5878 29.8301 17.4531 29.665C17.3211 29.5 17.1572 29.3744 16.9619 29.2891C16.7666 29.2038 16.5421 29.1612 16.2891 29.1611H15.6035V33.3848Z" fill="black"/>
<path d="M23.8525 28.2656V29.1611H21.1104V30.8623H23.5342V31.7578H21.1104V34.2764H19.9756V28.2656H23.8525Z" fill="black"/>
</svg>
